<svg width="20" height="18" viewBox="0 0 20 18" fill="none" xmlns="http://www.w3.org/2000/svg">
<path d="M7.76045 11.3668C7.18545 10.7928 6.83545 10.0128 6.83545 9.1378C6.83545 7.3848 8.24745 5.9718 9.99945 5.9718C10.8664 5.9718 11.6644 6.3228 12.2294 6.8968" stroke="#4A4C56" stroke-width="1.5" stroke-linecap="round" stroke-linejoin="round"/>
<path d="M13.1046 9.69891C12.8726 10.9889 11.8566 12.0069 10.5676 12.2409" stroke="#4A4C56" stroke-width="1.5" stroke-linecap="round" stroke-linejoin="round"/>
<path d="M4.65451 14.4723C3.06751 13.2263 1.72351 11.4063 0.749512 9.13729C1.73351 6.85829 3.08651 5.02829 4.68351 3.77229C6.27051 2.51629 8.10151 1.83429 9.99951 1.83429C11.9085 1.83429 13.7385 2.52629 15.3355 3.79129" stroke="#4A4C56" stroke-width="1.5" stroke-linecap="round" stroke-linejoin="round"/>
<path d="M17.4475 5.99081C18.1355 6.90481 18.7405 7.95981 19.2495 9.13681C17.2825 13.6938 13.8065 16.4388 9.99953 16.4388C9.13653 16.4388 8.28553 16.2988 7.46753 16.0258" stroke="#4A4C56" stroke-width="1.5" stroke-linecap="round" stroke-linejoin="round"/>
<path d="M17.8868 1.2496L2.11279 17.0236" stroke="#4A4C56" stroke-width="1.5" stroke-linecap="round" stroke-linejoin="round"/>
</svg>
